<mxfile host="app.diagrams.net" agent="Mozilla/5.0 (Windows NT 10.0; Win64; x64) AppleWebKit/537.36 (KHTML, like Gecko) Chrome/136.0.0.0 Safari/537.36 Edg/136.0.0.0" version="27.1.1">
  <diagram name="第 1 页" id="mGmnLelnss2CsZ9InQHE">
    <mxGraphModel dx="1371" dy="796" grid="1" gridSize="10" guides="1" tooltips="1" connect="1" arrows="1" fold="1" page="1" pageScale="1" pageWidth="827" pageHeight="1169" math="0" shadow="0">
      <root>
        <mxCell id="0" />
        <mxCell id="1" parent="0" />
        <mxCell id="kK4ZyeL5XsI5Hed6kHEq-2" value="" style="rounded=1;whiteSpace=wrap;html=1;fillColor=none;dashed=1;dashPattern=12 12;" vertex="1" parent="1">
          <mxGeometry x="130" y="220" width="360" height="410" as="geometry" />
        </mxCell>
        <mxCell id="kK4ZyeL5XsI5Hed6kHEq-3" value="信号分析系统" style="text;html=1;align=center;verticalAlign=middle;resizable=0;points=[];autosize=1;strokeColor=none;fillColor=none;" vertex="1" parent="1">
          <mxGeometry x="235" y="180" width="100" height="30" as="geometry" />
        </mxCell>
        <mxCell id="kK4ZyeL5XsI5Hed6kHEq-4" value="" style="rounded=1;whiteSpace=wrap;html=1;fillColor=none;dashed=1;dashPattern=12 12;" vertex="1" parent="1">
          <mxGeometry x="540" y="220" width="470" height="410" as="geometry" />
        </mxCell>
        <mxCell id="kK4ZyeL5XsI5Hed6kHEq-5" value="模型分析系统" style="text;html=1;align=center;verticalAlign=middle;resizable=0;points=[];autosize=1;strokeColor=none;fillColor=none;" vertex="1" parent="1">
          <mxGeometry x="645" y="180" width="100" height="30" as="geometry" />
        </mxCell>
        <mxCell id="kK4ZyeL5XsI5Hed6kHEq-6" value="用户上传数据集" style="rounded=0;whiteSpace=wrap;html=1;" vertex="1" parent="1">
          <mxGeometry x="245" y="250" width="120" height="60" as="geometry" />
        </mxCell>
        <mxCell id="kK4ZyeL5XsI5Hed6kHEq-9" value="" style="endArrow=classic;html=1;rounded=0;exitX=0.5;exitY=1;exitDx=0;exitDy=0;entryX=0.5;entryY=0;entryDx=0;entryDy=0;" edge="1" parent="1" source="kK4ZyeL5XsI5Hed6kHEq-6" target="kK4ZyeL5XsI5Hed6kHEq-14">
          <mxGeometry width="50" height="50" relative="1" as="geometry">
            <mxPoint x="284" y="326" as="sourcePoint" />
            <mxPoint x="414" y="300" as="targetPoint" />
          </mxGeometry>
        </mxCell>
        <mxCell id="kK4ZyeL5XsI5Hed6kHEq-10" value="时域分析" style="rounded=0;whiteSpace=wrap;html=1;" vertex="1" parent="1">
          <mxGeometry x="170" y="400" width="120" height="60" as="geometry" />
        </mxCell>
        <mxCell id="kK4ZyeL5XsI5Hed6kHEq-11" value="包络谱分析" style="rounded=0;whiteSpace=wrap;html=1;" vertex="1" parent="1">
          <mxGeometry x="320" y="400" width="120" height="60" as="geometry" />
        </mxCell>
        <mxCell id="kK4ZyeL5XsI5Hed6kHEq-12" value="小波变换图像生成" style="rounded=0;whiteSpace=wrap;html=1;" vertex="1" parent="1">
          <mxGeometry x="170" y="500" width="120" height="60" as="geometry" />
        </mxCell>
        <mxCell id="kK4ZyeL5XsI5Hed6kHEq-13" value="小波变换图像生成" style="rounded=0;whiteSpace=wrap;html=1;" vertex="1" parent="1">
          <mxGeometry x="320" y="500" width="120" height="60" as="geometry" />
        </mxCell>
        <mxCell id="kK4ZyeL5XsI5Hed6kHEq-14" value="" style="rounded=1;whiteSpace=wrap;html=1;fillColor=none;dashed=1;dashPattern=12 12;" vertex="1" parent="1">
          <mxGeometry x="150" y="380" width="310" height="210" as="geometry" />
        </mxCell>
        <mxCell id="kK4ZyeL5XsI5Hed6kHEq-15" value="用户上传数据集" style="rounded=0;whiteSpace=wrap;html=1;" vertex="1" parent="1">
          <mxGeometry x="711" y="291" width="120" height="60" as="geometry" />
        </mxCell>
        <mxCell id="kK4ZyeL5XsI5Hed6kHEq-17" value="制作同源异构数据集" style="rounded=0;whiteSpace=wrap;html=1;" vertex="1" parent="1">
          <mxGeometry x="711" y="391" width="120" height="60" as="geometry" />
        </mxCell>
        <mxCell id="kK4ZyeL5XsI5Hed6kHEq-19" value="集成学习模型构建" style="rounded=0;whiteSpace=wrap;html=1;" vertex="1" parent="1">
          <mxGeometry x="639" y="481" width="120" height="60" as="geometry" />
        </mxCell>
        <mxCell id="kK4ZyeL5XsI5Hed6kHEq-21" value="" style="endArrow=classic;html=1;rounded=0;entryX=0.5;entryY=0;entryDx=0;entryDy=0;exitX=0.5;exitY=1;exitDx=0;exitDy=0;" edge="1" parent="1" source="kK4ZyeL5XsI5Hed6kHEq-15" target="kK4ZyeL5XsI5Hed6kHEq-17">
          <mxGeometry width="50" height="50" relative="1" as="geometry">
            <mxPoint x="394" y="481" as="sourcePoint" />
            <mxPoint x="444" y="431" as="targetPoint" />
          </mxGeometry>
        </mxCell>
        <mxCell id="kK4ZyeL5XsI5Hed6kHEq-22" value="" style="endArrow=classic;html=1;rounded=0;entryX=0.5;entryY=0;entryDx=0;entryDy=0;exitX=0.5;exitY=1;exitDx=0;exitDy=0;" edge="1" parent="1" source="kK4ZyeL5XsI5Hed6kHEq-17" target="kK4ZyeL5XsI5Hed6kHEq-19">
          <mxGeometry width="50" height="50" relative="1" as="geometry">
            <mxPoint x="394" y="481" as="sourcePoint" />
            <mxPoint x="444" y="431" as="targetPoint" />
          </mxGeometry>
        </mxCell>
        <mxCell id="kK4ZyeL5XsI5Hed6kHEq-24" value="故障预测" style="rounded=0;whiteSpace=wrap;html=1;" vertex="1" parent="1">
          <mxGeometry x="794" y="481" width="120" height="60" as="geometry" />
        </mxCell>
        <mxCell id="kK4ZyeL5XsI5Hed6kHEq-27" value="" style="endArrow=classic;html=1;rounded=0;exitX=0.5;exitY=1;exitDx=0;exitDy=0;entryX=0.5;entryY=0;entryDx=0;entryDy=0;" edge="1" parent="1" source="kK4ZyeL5XsI5Hed6kHEq-17" target="kK4ZyeL5XsI5Hed6kHEq-24">
          <mxGeometry width="50" height="50" relative="1" as="geometry">
            <mxPoint x="394" y="481" as="sourcePoint" />
            <mxPoint x="444" y="431" as="targetPoint" />
          </mxGeometry>
        </mxCell>
      </root>
    </mxGraphModel>
  </diagram>
</mxfile>
